<mxfile host="Electron" modified="2025-02-20T12:54:25.677Z" agent="Mozilla/5.0 (Windows NT 10.0; Win64; x64) AppleWebKit/537.36 (KHTML, like Gecko) draw.io/22.0.3 Chrome/114.0.5735.289 Electron/25.8.4 Safari/537.36" etag="6UTN4FxaknnlI4AhOkWU" version="22.0.3" type="device" pages="5">
  <diagram id="Lb3aVdWIwpXPXD3H8pVa" name="Main screen">
    <mxGraphModel dx="1418" dy="828" grid="1" gridSize="10" guides="1" tooltips="1" connect="1" arrows="1" fold="1" page="1" pageScale="1" pageWidth="827" pageHeight="1169" math="0" shadow="0">
      <root>
        <mxCell id="0" />
        <mxCell id="1" parent="0" />
        <mxCell id="FlBwORqaOCchiRHE7Fso-1" value="&amp;nbsp; Events" style="strokeWidth=1;shadow=0;dashed=0;align=center;html=1;shape=mxgraph.mockup.containers.window;align=left;verticalAlign=top;spacingLeft=8;strokeColor2=#008cff;strokeColor3=#c4c4c4;fontColor=#666666;mainText=;fontSize=17;labelBackgroundColor=none;whiteSpace=wrap;" parent="1" vertex="1">
          <mxGeometry width="820" height="490" as="geometry" />
        </mxCell>
        <mxCell id="m05NOQ2zas2y1Qg4LJAP-6" value="&lt;font style=&quot;font-size: 18px;&quot; face=&quot;Times New Roman&quot;&gt;Мероприятия&lt;/font&gt;" style="swimlane;fontStyle=0;childLayout=stackLayout;horizontal=1;startSize=30;horizontalStack=0;resizeParent=1;resizeParentMax=0;resizeLast=0;collapsible=1;marginBottom=0;whiteSpace=wrap;html=1;movable=1;resizable=1;rotatable=1;deletable=1;editable=1;locked=0;connectable=1;strokeColor=#999999;rounded=1;arcSize=14;fillColor=#eeeeee;fontSize=18;" parent="1" vertex="1">
          <mxGeometry x="274" y="120" width="476" height="260" as="geometry" />
        </mxCell>
        <mxCell id="m05NOQ2zas2y1Qg4LJAP-7" value="&lt;span style=&quot;font-size: 18px;&quot;&gt;&amp;nbsp; Мероприятие 1&lt;/span&gt;" style="text;strokeColor=none;fillColor=none;align=left;verticalAlign=middle;spacingLeft=4;spacingRight=4;overflow=hidden;points=[[0,0.5],[1,0.5]];portConstraint=eastwest;rotatable=1;whiteSpace=wrap;html=1;fontFamily=Times New Roman;movable=1;resizable=1;deletable=1;editable=1;locked=0;connectable=1;fontSize=18;" parent="m05NOQ2zas2y1Qg4LJAP-6" vertex="1">
          <mxGeometry y="30" width="476" height="60" as="geometry" />
        </mxCell>
        <mxCell id="m05NOQ2zas2y1Qg4LJAP-8" value="&lt;font style=&quot;font-size: 18px;&quot;&gt;&amp;nbsp; Мероприятие 2&lt;/font&gt;" style="text;strokeColor=none;fillColor=none;align=left;verticalAlign=middle;spacingLeft=4;spacingRight=4;overflow=hidden;points=[[0,0.5],[1,0.5]];portConstraint=eastwest;rotatable=1;whiteSpace=wrap;html=1;fontFamily=Times New Roman;movable=1;resizable=1;deletable=1;editable=1;locked=0;connectable=1;fontSize=18;" parent="m05NOQ2zas2y1Qg4LJAP-6" vertex="1">
          <mxGeometry y="90" width="476" height="60" as="geometry" />
        </mxCell>
        <mxCell id="m05NOQ2zas2y1Qg4LJAP-9" value="&lt;font face=&quot;Times New Roman&quot; style=&quot;font-size: 18px;&quot;&gt;&amp;nbsp; Мероприятие 3&lt;br style=&quot;font-size: 18px;&quot;&gt;&lt;/font&gt;" style="text;strokeColor=none;fillColor=none;align=left;verticalAlign=middle;spacingLeft=4;spacingRight=4;overflow=hidden;points=[[0,0.5],[1,0.5]];portConstraint=eastwest;rotatable=1;whiteSpace=wrap;html=1;movable=1;resizable=1;deletable=1;editable=1;locked=0;connectable=1;fontSize=18;" parent="m05NOQ2zas2y1Qg4LJAP-6" vertex="1">
          <mxGeometry y="150" width="476" height="50" as="geometry" />
        </mxCell>
        <mxCell id="y3RCMcZDoDuS0YP8rBI2-2" value="&lt;font face=&quot;Times New Roman&quot; style=&quot;font-size: 18px;&quot;&gt;&amp;nbsp; Мероприятие 4&lt;br style=&quot;font-size: 18px;&quot;&gt;&lt;/font&gt;" style="text;strokeColor=none;fillColor=none;align=left;verticalAlign=middle;spacingLeft=4;spacingRight=4;overflow=hidden;points=[[0,0.5],[1,0.5]];portConstraint=eastwest;rotatable=1;whiteSpace=wrap;html=1;movable=1;resizable=1;deletable=1;editable=1;locked=0;connectable=1;fontSize=18;" parent="m05NOQ2zas2y1Qg4LJAP-6" vertex="1">
          <mxGeometry y="200" width="476" height="60" as="geometry" />
        </mxCell>
        <mxCell id="m05NOQ2zas2y1Qg4LJAP-1" value="" style="rounded=1;whiteSpace=wrap;html=1;strokeColor=#999999;arcSize=6;fontSize=18;" parent="1" vertex="1">
          <mxGeometry x="74" y="120" width="160" height="260" as="geometry" />
        </mxCell>
        <mxCell id="FUR7wzRC1bH5YTmGmZWL-6" value="&lt;font face=&quot;Times New Roman&quot; style=&quot;font-size: 18px;&quot;&gt;&lt;span style=&quot;font-size: 18px;&quot;&gt;Перейти&lt;/span&gt;&lt;/font&gt;" style="rounded=1;fillColor=#eeeeee;strokeColor=#999999;html=1;whiteSpace=wrap;align=center;verticalAlign=middle;fontStyle=0;fontSize=18;sketch=0;" parent="1" vertex="1">
          <mxGeometry x="604" y="167" width="126" height="33" as="geometry" />
        </mxCell>
        <mxCell id="FUR7wzRC1bH5YTmGmZWL-7" value="&lt;font face=&quot;Times New Roman&quot; style=&quot;font-size: 18px;&quot;&gt;Перейти&lt;/font&gt;" style="rounded=1;fillColor=#eeeeee;strokeColor=#999999;html=1;whiteSpace=wrap;align=center;verticalAlign=middle;fontStyle=0;fontSize=18;sketch=0;" parent="1" vertex="1">
          <mxGeometry x="604" y="223" width="126" height="33" as="geometry" />
        </mxCell>
        <mxCell id="FUR7wzRC1bH5YTmGmZWL-8" value="&lt;font face=&quot;Times New Roman&quot; style=&quot;font-size: 18px;&quot;&gt;Перейти&lt;/font&gt;" style="rounded=1;fillColor=#eeeeee;strokeColor=#999999;html=1;whiteSpace=wrap;align=center;verticalAlign=middle;fontStyle=0;fontSize=18;sketch=0;" parent="1" vertex="1">
          <mxGeometry x="604" y="278" width="126" height="33" as="geometry" />
        </mxCell>
        <mxCell id="y3RCMcZDoDuS0YP8rBI2-1" value="&lt;font face=&quot;Times New Roman&quot; style=&quot;font-size: 18px;&quot;&gt;Следующее мероприятие через 00:00:00&lt;/font&gt;" style="text;html=1;strokeColor=none;fillColor=none;align=center;verticalAlign=middle;whiteSpace=wrap;rounded=0;fontSize=18;" parent="1" vertex="1">
          <mxGeometry x="84" y="160" width="140" height="180" as="geometry" />
        </mxCell>
        <mxCell id="y3RCMcZDoDuS0YP8rBI2-4" value="&lt;font face=&quot;Times New Roman&quot; style=&quot;font-size: 18px;&quot;&gt;&lt;span style=&quot;font-size: 18px;&quot;&gt;Перейти&lt;/span&gt;&lt;/font&gt;" style="rounded=1;fillColor=#eeeeee;strokeColor=#999999;html=1;whiteSpace=wrap;align=center;verticalAlign=middle;fontStyle=0;fontSize=18;sketch=0;" parent="1" vertex="1">
          <mxGeometry x="604" y="331" width="126" height="33" as="geometry" />
        </mxCell>
        <mxCell id="y3RCMcZDoDuS0YP8rBI2-5" value="&lt;font style=&quot;font-size: 16px;&quot; face=&quot;Times New Roman&quot;&gt;Дата&lt;/font&gt;" style="text;html=1;strokeColor=none;fillColor=none;align=center;verticalAlign=middle;whiteSpace=wrap;rounded=0;fontSize=16;fontColor=#999999;" parent="1" vertex="1">
          <mxGeometry x="424" y="169" width="60" height="30" as="geometry" />
        </mxCell>
        <mxCell id="y3RCMcZDoDuS0YP8rBI2-6" value="&lt;font style=&quot;font-size: 16px;&quot; face=&quot;Times New Roman&quot;&gt;Дата&lt;/font&gt;" style="text;html=1;strokeColor=none;fillColor=none;align=center;verticalAlign=middle;whiteSpace=wrap;rounded=0;fontSize=16;fontColor=#999999;" parent="1" vertex="1">
          <mxGeometry x="424" y="225" width="60" height="30" as="geometry" />
        </mxCell>
        <mxCell id="y3RCMcZDoDuS0YP8rBI2-7" value="&lt;font style=&quot;font-size: 16px;&quot; face=&quot;Times New Roman&quot;&gt;Дата&lt;/font&gt;" style="text;html=1;strokeColor=none;fillColor=none;align=center;verticalAlign=middle;whiteSpace=wrap;rounded=0;fontSize=16;fontColor=#999999;" parent="1" vertex="1">
          <mxGeometry x="424" y="283" width="60" height="30" as="geometry" />
        </mxCell>
        <mxCell id="y3RCMcZDoDuS0YP8rBI2-9" value="&lt;font style=&quot;font-size: 16px;&quot; face=&quot;Times New Roman&quot;&gt;Дата&lt;/font&gt;" style="text;html=1;strokeColor=none;fillColor=none;align=center;verticalAlign=middle;whiteSpace=wrap;rounded=0;fontSize=16;fontColor=#999999;" parent="1" vertex="1">
          <mxGeometry x="424" y="337" width="60" height="30" as="geometry" />
        </mxCell>
        <mxCell id="4aFrTbsKHPu2FgXnWKFM-1" value="&lt;font style=&quot;font-size: 18px;&quot; face=&quot;Times New Roman&quot;&gt;Создать мероприятие&lt;/font&gt;" style="rounded=1;fillColor=#bac8d3;strokeColor=#23445d;html=1;whiteSpace=wrap;align=center;verticalAlign=middle;fontStyle=0;fontSize=18;sketch=0;" parent="1" vertex="1">
          <mxGeometry x="74" y="410" width="230" height="40" as="geometry" />
        </mxCell>
        <mxCell id="FlBwORqaOCchiRHE7Fso-2" value="&lt;font face=&quot;Times New Roman&quot;&gt;&lt;span style=&quot;font-size: 20px;&quot;&gt;&amp;nbsp; Главная страница&lt;/span&gt;&lt;/font&gt;" style="rounded=0;whiteSpace=wrap;html=1;fillColor=#bac8d3;strokeColor=#23445d;align=left;" parent="1" vertex="1">
          <mxGeometry y="30" width="820" height="50" as="geometry" />
        </mxCell>
      </root>
    </mxGraphModel>
  </diagram>
  <diagram id="WJ_cxe6x_YXA9jYFeaaU" name="New event">
    <mxGraphModel dx="1418" dy="828" grid="1" gridSize="10" guides="1" tooltips="1" connect="1" arrows="1" fold="1" page="1" pageScale="1" pageWidth="827" pageHeight="1169" math="0" shadow="0">
      <root>
        <mxCell id="0" />
        <mxCell id="1" parent="0" />
        <mxCell id="HiHiKbM-J_CQWqvF8n2c-1" value="&amp;nbsp; Events" style="strokeWidth=1;shadow=0;dashed=0;align=center;html=1;shape=mxgraph.mockup.containers.window;align=left;verticalAlign=top;spacingLeft=8;strokeColor2=#008cff;strokeColor3=#c4c4c4;fontColor=#666666;mainText=;fontSize=17;labelBackgroundColor=none;whiteSpace=wrap;" parent="1" vertex="1">
          <mxGeometry width="820" height="760" as="geometry" />
        </mxCell>
        <mxCell id="K7BYzkR6KYvUp_-vjZ2B-1" value="&lt;font face=&quot;Times New Roman&quot; style=&quot;font-size: 24px;&quot;&gt;Новое мероприятие&lt;/font&gt;" style="text;html=1;strokeColor=none;fillColor=none;align=left;verticalAlign=middle;whiteSpace=wrap;rounded=0;fontSize=24;" parent="1" vertex="1">
          <mxGeometry x="80" y="50" width="350" height="30" as="geometry" />
        </mxCell>
        <mxCell id="_a7tyg3w_97XcT5o7c1h-22" value="&lt;font style=&quot;font-size: 18px;&quot; face=&quot;Times New Roman&quot;&gt;Добавить мероприятие&lt;/font&gt;" style="rounded=1;fillColor=#bac8d3;strokeColor=#23445d;html=1;whiteSpace=wrap;align=center;verticalAlign=middle;fontStyle=0;fontSize=18;sketch=0;" parent="1" vertex="1">
          <mxGeometry x="75" y="680" width="246" height="40" as="geometry" />
        </mxCell>
        <mxCell id="zYr-CUKTBNsLy4SpV7Tg-1" value="" style="strokeWidth=1;shadow=0;dashed=0;align=center;html=1;shape=mxgraph.mockup.forms.rrect;rSize=5;strokeColor=#999999;fillColor=#ffffff;" parent="1" vertex="1">
          <mxGeometry x="75" y="256" width="297" height="240" as="geometry" />
        </mxCell>
        <mxCell id="zYr-CUKTBNsLy4SpV7Tg-2" value="October 2014" style="strokeWidth=1;shadow=0;dashed=0;align=center;html=1;shape=mxgraph.mockup.forms.anchor;fontColor=#999999;" parent="zYr-CUKTBNsLy4SpV7Tg-1" vertex="1">
          <mxGeometry x="55.6875" y="10.971428571428572" width="185.625" height="27.42857142857143" as="geometry" />
        </mxCell>
        <mxCell id="zYr-CUKTBNsLy4SpV7Tg-3" value="&lt;" style="strokeWidth=1;shadow=0;dashed=0;align=center;html=1;shape=mxgraph.mockup.forms.rrect;rSize=4;strokeColor=#999999;fontSize=19;fontStyle=1;fillColor=#eeeeee;" parent="zYr-CUKTBNsLy4SpV7Tg-1" vertex="1">
          <mxGeometry x="14.85" y="10.971428571428572" width="46.40625" height="27.42857142857143" as="geometry" />
        </mxCell>
        <mxCell id="zYr-CUKTBNsLy4SpV7Tg-4" value="&gt;" style="strokeWidth=1;shadow=0;dashed=0;align=center;html=1;shape=mxgraph.mockup.forms.rrect;rSize=4;strokeColor=#999999;fontSize=19;fontStyle=1;fillColor=#eeeeee;" parent="zYr-CUKTBNsLy4SpV7Tg-1" vertex="1">
          <mxGeometry x="235.74375" y="10.971428571428572" width="46.40625" height="27.42857142857143" as="geometry" />
        </mxCell>
        <mxCell id="zYr-CUKTBNsLy4SpV7Tg-5" value="Mo" style="strokeWidth=1;shadow=0;dashed=0;align=center;html=1;shape=mxgraph.mockup.forms.anchor;fontColor=#999999;" parent="zYr-CUKTBNsLy4SpV7Tg-1" vertex="1">
          <mxGeometry x="18.5625" y="38.4" width="37.125" height="27.42857142857143" as="geometry" />
        </mxCell>
        <mxCell id="zYr-CUKTBNsLy4SpV7Tg-6" value="Tu" style="strokeWidth=1;shadow=0;dashed=0;align=center;html=1;shape=mxgraph.mockup.forms.anchor;fontColor=#999999;" parent="zYr-CUKTBNsLy4SpV7Tg-1" vertex="1">
          <mxGeometry x="55.6875" y="38.4" width="37.125" height="27.42857142857143" as="geometry" />
        </mxCell>
        <mxCell id="zYr-CUKTBNsLy4SpV7Tg-7" value="We" style="strokeWidth=1;shadow=0;dashed=0;align=center;html=1;shape=mxgraph.mockup.forms.anchor;fontColor=#999999;" parent="zYr-CUKTBNsLy4SpV7Tg-1" vertex="1">
          <mxGeometry x="92.8125" y="38.4" width="37.125" height="27.42857142857143" as="geometry" />
        </mxCell>
        <mxCell id="zYr-CUKTBNsLy4SpV7Tg-8" value="Th" style="strokeWidth=1;shadow=0;dashed=0;align=center;html=1;shape=mxgraph.mockup.forms.anchor;fontColor=#999999;" parent="zYr-CUKTBNsLy4SpV7Tg-1" vertex="1">
          <mxGeometry x="129.9375" y="38.4" width="37.125" height="27.42857142857143" as="geometry" />
        </mxCell>
        <mxCell id="zYr-CUKTBNsLy4SpV7Tg-9" value="Fr" style="strokeWidth=1;shadow=0;dashed=0;align=center;html=1;shape=mxgraph.mockup.forms.anchor;fontColor=#999999;" parent="zYr-CUKTBNsLy4SpV7Tg-1" vertex="1">
          <mxGeometry x="167.0625" y="38.4" width="37.125" height="27.42857142857143" as="geometry" />
        </mxCell>
        <mxCell id="zYr-CUKTBNsLy4SpV7Tg-10" value="Sa" style="strokeWidth=1;shadow=0;dashed=0;align=center;html=1;shape=mxgraph.mockup.forms.anchor;fontColor=#999999;" parent="zYr-CUKTBNsLy4SpV7Tg-1" vertex="1">
          <mxGeometry x="204.1875" y="38.4" width="37.125" height="27.42857142857143" as="geometry" />
        </mxCell>
        <mxCell id="zYr-CUKTBNsLy4SpV7Tg-11" value="Su" style="strokeWidth=1;shadow=0;dashed=0;align=center;html=1;shape=mxgraph.mockup.forms.anchor;fontColor=#999999;" parent="zYr-CUKTBNsLy4SpV7Tg-1" vertex="1">
          <mxGeometry x="241.3125" y="38.4" width="37.125" height="27.42857142857143" as="geometry" />
        </mxCell>
        <mxCell id="zYr-CUKTBNsLy4SpV7Tg-12" value="1" style="strokeWidth=1;shadow=0;dashed=0;align=center;html=1;shape=mxgraph.mockup.forms.rrect;rSize=0;strokeColor=#999999;fontColor=#999999;" parent="zYr-CUKTBNsLy4SpV7Tg-1" vertex="1">
          <mxGeometry x="18.5625" y="65.82857142857142" width="37.125" height="27.42857142857143" as="geometry" />
        </mxCell>
        <mxCell id="zYr-CUKTBNsLy4SpV7Tg-13" value="2" style="strokeWidth=1;shadow=0;dashed=0;align=center;html=1;shape=mxgraph.mockup.forms.rrect;rSize=0;strokeColor=#999999;fontColor=#999999;" parent="zYr-CUKTBNsLy4SpV7Tg-1" vertex="1">
          <mxGeometry x="55.6875" y="65.82857142857142" width="37.125" height="27.42857142857143" as="geometry" />
        </mxCell>
        <mxCell id="zYr-CUKTBNsLy4SpV7Tg-14" value="3" style="strokeWidth=1;shadow=0;dashed=0;align=center;html=1;shape=mxgraph.mockup.forms.rrect;rSize=0;strokeColor=#999999;fontColor=#999999;" parent="zYr-CUKTBNsLy4SpV7Tg-1" vertex="1">
          <mxGeometry x="92.8125" y="65.82857142857142" width="37.125" height="27.42857142857143" as="geometry" />
        </mxCell>
        <mxCell id="zYr-CUKTBNsLy4SpV7Tg-15" value="4" style="strokeWidth=1;shadow=0;dashed=0;align=center;html=1;shape=mxgraph.mockup.forms.rrect;rSize=0;strokeColor=#999999;fontColor=#999999;" parent="zYr-CUKTBNsLy4SpV7Tg-1" vertex="1">
          <mxGeometry x="129.9375" y="65.82857142857142" width="37.125" height="27.42857142857143" as="geometry" />
        </mxCell>
        <mxCell id="zYr-CUKTBNsLy4SpV7Tg-16" value="5" style="strokeWidth=1;shadow=0;dashed=0;align=center;html=1;shape=mxgraph.mockup.forms.rrect;rSize=0;strokeColor=#999999;fontColor=#999999;" parent="zYr-CUKTBNsLy4SpV7Tg-1" vertex="1">
          <mxGeometry x="167.0625" y="65.82857142857142" width="37.125" height="27.42857142857143" as="geometry" />
        </mxCell>
        <mxCell id="zYr-CUKTBNsLy4SpV7Tg-17" value="6" style="strokeWidth=1;shadow=0;dashed=0;align=center;html=1;shape=mxgraph.mockup.forms.rrect;rSize=0;strokeColor=#999999;fontColor=#999999;" parent="zYr-CUKTBNsLy4SpV7Tg-1" vertex="1">
          <mxGeometry x="204.1875" y="65.82857142857142" width="37.125" height="27.42857142857143" as="geometry" />
        </mxCell>
        <mxCell id="zYr-CUKTBNsLy4SpV7Tg-18" value="7" style="strokeWidth=1;shadow=0;dashed=0;align=center;html=1;shape=mxgraph.mockup.forms.rrect;rSize=0;strokeColor=#999999;fontColor=#999999;" parent="zYr-CUKTBNsLy4SpV7Tg-1" vertex="1">
          <mxGeometry x="241.3125" y="65.82857142857142" width="37.125" height="27.42857142857143" as="geometry" />
        </mxCell>
        <mxCell id="zYr-CUKTBNsLy4SpV7Tg-19" value="8" style="strokeWidth=1;shadow=0;dashed=0;align=center;html=1;shape=mxgraph.mockup.forms.rrect;rSize=0;strokeColor=#999999;fontColor=#999999;" parent="zYr-CUKTBNsLy4SpV7Tg-1" vertex="1">
          <mxGeometry x="18.5625" y="93.25714285714285" width="37.125" height="27.42857142857143" as="geometry" />
        </mxCell>
        <mxCell id="zYr-CUKTBNsLy4SpV7Tg-20" value="9" style="strokeWidth=1;shadow=0;dashed=0;align=center;html=1;shape=mxgraph.mockup.forms.rrect;rSize=0;strokeColor=#999999;fontColor=#999999;" parent="zYr-CUKTBNsLy4SpV7Tg-1" vertex="1">
          <mxGeometry x="55.6875" y="93.25714285714285" width="37.125" height="27.42857142857143" as="geometry" />
        </mxCell>
        <mxCell id="zYr-CUKTBNsLy4SpV7Tg-21" value="10" style="strokeWidth=1;shadow=0;dashed=0;align=center;html=1;shape=mxgraph.mockup.forms.rrect;rSize=0;strokeColor=#999999;fontColor=#999999;" parent="zYr-CUKTBNsLy4SpV7Tg-1" vertex="1">
          <mxGeometry x="92.8125" y="93.25714285714285" width="37.125" height="27.42857142857143" as="geometry" />
        </mxCell>
        <mxCell id="zYr-CUKTBNsLy4SpV7Tg-22" value="11" style="strokeWidth=1;shadow=0;dashed=0;align=center;html=1;shape=mxgraph.mockup.forms.rrect;rSize=0;strokeColor=#999999;fontColor=#999999;" parent="zYr-CUKTBNsLy4SpV7Tg-1" vertex="1">
          <mxGeometry x="129.9375" y="93.25714285714285" width="37.125" height="27.42857142857143" as="geometry" />
        </mxCell>
        <mxCell id="zYr-CUKTBNsLy4SpV7Tg-23" value="12" style="strokeWidth=1;shadow=0;dashed=0;align=center;html=1;shape=mxgraph.mockup.forms.rrect;rSize=0;strokeColor=#999999;fontColor=#999999;" parent="zYr-CUKTBNsLy4SpV7Tg-1" vertex="1">
          <mxGeometry x="167.0625" y="93.25714285714285" width="37.125" height="27.42857142857143" as="geometry" />
        </mxCell>
        <mxCell id="zYr-CUKTBNsLy4SpV7Tg-24" value="13" style="strokeWidth=1;shadow=0;dashed=0;align=center;html=1;shape=mxgraph.mockup.forms.rrect;rSize=0;strokeColor=#999999;fontColor=#999999;" parent="zYr-CUKTBNsLy4SpV7Tg-1" vertex="1">
          <mxGeometry x="204.1875" y="93.25714285714285" width="37.125" height="27.42857142857143" as="geometry" />
        </mxCell>
        <mxCell id="zYr-CUKTBNsLy4SpV7Tg-25" value="14" style="strokeWidth=1;shadow=0;dashed=0;align=center;html=1;shape=mxgraph.mockup.forms.rrect;rSize=0;strokeColor=#999999;fontColor=#999999;" parent="zYr-CUKTBNsLy4SpV7Tg-1" vertex="1">
          <mxGeometry x="241.3125" y="93.25714285714285" width="37.125" height="27.42857142857143" as="geometry" />
        </mxCell>
        <mxCell id="zYr-CUKTBNsLy4SpV7Tg-26" value="15" style="strokeWidth=1;shadow=0;dashed=0;align=center;html=1;shape=mxgraph.mockup.forms.rrect;rSize=0;strokeColor=#999999;fontColor=#999999;" parent="zYr-CUKTBNsLy4SpV7Tg-1" vertex="1">
          <mxGeometry x="18.5625" y="120.68571428571428" width="37.125" height="27.42857142857143" as="geometry" />
        </mxCell>
        <mxCell id="zYr-CUKTBNsLy4SpV7Tg-27" value="16" style="strokeWidth=1;shadow=0;dashed=0;align=center;html=1;shape=mxgraph.mockup.forms.rrect;rSize=0;strokeColor=#999999;fontColor=#999999;" parent="zYr-CUKTBNsLy4SpV7Tg-1" vertex="1">
          <mxGeometry x="55.6875" y="120.68571428571428" width="37.125" height="27.42857142857143" as="geometry" />
        </mxCell>
        <mxCell id="zYr-CUKTBNsLy4SpV7Tg-28" value="17" style="strokeWidth=1;shadow=0;dashed=0;align=center;html=1;shape=mxgraph.mockup.forms.rrect;rSize=0;strokeColor=#999999;fontColor=#999999;" parent="zYr-CUKTBNsLy4SpV7Tg-1" vertex="1">
          <mxGeometry x="92.8125" y="120.68571428571428" width="37.125" height="27.42857142857143" as="geometry" />
        </mxCell>
        <mxCell id="zYr-CUKTBNsLy4SpV7Tg-29" value="18" style="strokeWidth=1;shadow=0;dashed=0;align=center;html=1;shape=mxgraph.mockup.forms.rrect;rSize=0;strokeColor=#999999;fontColor=#999999;" parent="zYr-CUKTBNsLy4SpV7Tg-1" vertex="1">
          <mxGeometry x="129.9375" y="120.68571428571428" width="37.125" height="27.42857142857143" as="geometry" />
        </mxCell>
        <mxCell id="zYr-CUKTBNsLy4SpV7Tg-30" value="19" style="strokeWidth=1;shadow=0;dashed=0;align=center;html=1;shape=mxgraph.mockup.forms.rrect;rSize=0;strokeColor=#999999;fontColor=#999999;" parent="zYr-CUKTBNsLy4SpV7Tg-1" vertex="1">
          <mxGeometry x="167.0625" y="120.68571428571428" width="37.125" height="27.42857142857143" as="geometry" />
        </mxCell>
        <mxCell id="zYr-CUKTBNsLy4SpV7Tg-31" value="20" style="strokeWidth=1;shadow=0;dashed=0;align=center;html=1;shape=mxgraph.mockup.forms.rrect;rSize=0;strokeColor=#999999;fontColor=#999999;" parent="zYr-CUKTBNsLy4SpV7Tg-1" vertex="1">
          <mxGeometry x="204.1875" y="120.68571428571428" width="37.125" height="27.42857142857143" as="geometry" />
        </mxCell>
        <mxCell id="zYr-CUKTBNsLy4SpV7Tg-32" value="21" style="strokeWidth=1;shadow=0;dashed=0;align=center;html=1;shape=mxgraph.mockup.forms.rrect;rSize=0;strokeColor=#999999;fontColor=#999999;" parent="zYr-CUKTBNsLy4SpV7Tg-1" vertex="1">
          <mxGeometry x="241.3125" y="120.68571428571428" width="37.125" height="27.42857142857143" as="geometry" />
        </mxCell>
        <mxCell id="zYr-CUKTBNsLy4SpV7Tg-33" value="22" style="strokeWidth=1;shadow=0;dashed=0;align=center;html=1;shape=mxgraph.mockup.forms.rrect;rSize=0;strokeColor=#999999;fontColor=#999999;" parent="zYr-CUKTBNsLy4SpV7Tg-1" vertex="1">
          <mxGeometry x="18.5625" y="148.11428571428573" width="37.125" height="27.42857142857143" as="geometry" />
        </mxCell>
        <mxCell id="zYr-CUKTBNsLy4SpV7Tg-34" value="23" style="strokeWidth=1;shadow=0;dashed=0;align=center;html=1;shape=mxgraph.mockup.forms.rrect;rSize=0;strokeColor=#999999;fontColor=#999999;" parent="zYr-CUKTBNsLy4SpV7Tg-1" vertex="1">
          <mxGeometry x="55.6875" y="148.11428571428573" width="37.125" height="27.42857142857143" as="geometry" />
        </mxCell>
        <mxCell id="zYr-CUKTBNsLy4SpV7Tg-35" value="25" style="strokeWidth=1;shadow=0;dashed=0;align=center;html=1;shape=mxgraph.mockup.forms.rrect;rSize=0;strokeColor=#999999;fontColor=#999999;" parent="zYr-CUKTBNsLy4SpV7Tg-1" vertex="1">
          <mxGeometry x="129.9375" y="148.11428571428573" width="37.125" height="27.42857142857143" as="geometry" />
        </mxCell>
        <mxCell id="zYr-CUKTBNsLy4SpV7Tg-36" value="26" style="strokeWidth=1;shadow=0;dashed=0;align=center;html=1;shape=mxgraph.mockup.forms.rrect;rSize=0;strokeColor=#999999;fontColor=#999999;" parent="zYr-CUKTBNsLy4SpV7Tg-1" vertex="1">
          <mxGeometry x="167.0625" y="148.11428571428573" width="37.125" height="27.42857142857143" as="geometry" />
        </mxCell>
        <mxCell id="zYr-CUKTBNsLy4SpV7Tg-37" value="27" style="strokeWidth=1;shadow=0;dashed=0;align=center;html=1;shape=mxgraph.mockup.forms.rrect;rSize=0;strokeColor=#999999;fontColor=#999999;" parent="zYr-CUKTBNsLy4SpV7Tg-1" vertex="1">
          <mxGeometry x="204.1875" y="148.11428571428573" width="37.125" height="27.42857142857143" as="geometry" />
        </mxCell>
        <mxCell id="zYr-CUKTBNsLy4SpV7Tg-38" value="28" style="strokeWidth=1;shadow=0;dashed=0;align=center;html=1;shape=mxgraph.mockup.forms.rrect;rSize=0;strokeColor=#999999;fontColor=#999999;" parent="zYr-CUKTBNsLy4SpV7Tg-1" vertex="1">
          <mxGeometry x="241.3125" y="148.11428571428573" width="37.125" height="27.42857142857143" as="geometry" />
        </mxCell>
        <mxCell id="zYr-CUKTBNsLy4SpV7Tg-39" value="29" style="strokeWidth=1;shadow=0;dashed=0;align=center;html=1;shape=mxgraph.mockup.forms.rrect;rSize=0;strokeColor=#999999;fontColor=#999999;" parent="zYr-CUKTBNsLy4SpV7Tg-1" vertex="1">
          <mxGeometry x="18.5625" y="175.54285714285714" width="37.125" height="27.42857142857143" as="geometry" />
        </mxCell>
        <mxCell id="zYr-CUKTBNsLy4SpV7Tg-40" value="30" style="strokeWidth=1;shadow=0;dashed=0;align=center;html=1;shape=mxgraph.mockup.forms.rrect;rSize=0;strokeColor=#999999;fontColor=#999999;" parent="zYr-CUKTBNsLy4SpV7Tg-1" vertex="1">
          <mxGeometry x="55.6875" y="175.54285714285714" width="37.125" height="27.42857142857143" as="geometry" />
        </mxCell>
        <mxCell id="zYr-CUKTBNsLy4SpV7Tg-41" value="31" style="strokeWidth=1;shadow=0;dashed=0;align=center;html=1;shape=mxgraph.mockup.forms.rrect;rSize=0;strokeColor=#999999;fontColor=#999999;" parent="zYr-CUKTBNsLy4SpV7Tg-1" vertex="1">
          <mxGeometry x="92.8125" y="175.54285714285714" width="37.125" height="27.42857142857143" as="geometry" />
        </mxCell>
        <mxCell id="zYr-CUKTBNsLy4SpV7Tg-42" value="1" style="strokeWidth=1;shadow=0;dashed=0;align=center;html=1;shape=mxgraph.mockup.forms.rrect;rSize=0;strokeColor=#999999;fillColor=#eeeeee;" parent="zYr-CUKTBNsLy4SpV7Tg-1" vertex="1">
          <mxGeometry x="129.9375" y="175.54285714285714" width="37.125" height="27.42857142857143" as="geometry" />
        </mxCell>
        <mxCell id="zYr-CUKTBNsLy4SpV7Tg-43" value="2" style="strokeWidth=1;shadow=0;dashed=0;align=center;html=1;shape=mxgraph.mockup.forms.rrect;rSize=0;strokeColor=#999999;fillColor=#eeeeee;" parent="zYr-CUKTBNsLy4SpV7Tg-1" vertex="1">
          <mxGeometry x="167.0625" y="175.54285714285714" width="37.125" height="27.42857142857143" as="geometry" />
        </mxCell>
        <mxCell id="zYr-CUKTBNsLy4SpV7Tg-44" value="3" style="strokeWidth=1;shadow=0;dashed=0;align=center;html=1;shape=mxgraph.mockup.forms.rrect;rSize=0;strokeColor=#999999;fillColor=#eeeeee;" parent="zYr-CUKTBNsLy4SpV7Tg-1" vertex="1">
          <mxGeometry x="204.1875" y="175.54285714285714" width="37.125" height="27.42857142857143" as="geometry" />
        </mxCell>
        <mxCell id="zYr-CUKTBNsLy4SpV7Tg-45" value="4" style="strokeWidth=1;shadow=0;dashed=0;align=center;html=1;shape=mxgraph.mockup.forms.rrect;rSize=0;strokeColor=#999999;fillColor=#eeeeee;" parent="zYr-CUKTBNsLy4SpV7Tg-1" vertex="1">
          <mxGeometry x="241.3125" y="175.54285714285714" width="37.125" height="27.42857142857143" as="geometry" />
        </mxCell>
        <mxCell id="zYr-CUKTBNsLy4SpV7Tg-46" value="5" style="strokeWidth=1;shadow=0;dashed=0;align=center;html=1;shape=mxgraph.mockup.forms.rrect;rSize=0;strokeColor=#999999;fillColor=#eeeeee;" parent="zYr-CUKTBNsLy4SpV7Tg-1" vertex="1">
          <mxGeometry x="18.5625" y="202.97142857142856" width="37.125" height="27.42857142857143" as="geometry" />
        </mxCell>
        <mxCell id="zYr-CUKTBNsLy4SpV7Tg-47" value="6" style="strokeWidth=1;shadow=0;dashed=0;align=center;html=1;shape=mxgraph.mockup.forms.rrect;rSize=0;strokeColor=#999999;fillColor=#eeeeee;" parent="zYr-CUKTBNsLy4SpV7Tg-1" vertex="1">
          <mxGeometry x="55.6875" y="202.97142857142856" width="37.125" height="27.42857142857143" as="geometry" />
        </mxCell>
        <mxCell id="zYr-CUKTBNsLy4SpV7Tg-48" value="7" style="strokeWidth=1;shadow=0;dashed=0;align=center;html=1;shape=mxgraph.mockup.forms.rrect;rSize=0;strokeColor=#999999;fillColor=#eeeeee;" parent="zYr-CUKTBNsLy4SpV7Tg-1" vertex="1">
          <mxGeometry x="92.8125" y="202.97142857142856" width="37.125" height="27.42857142857143" as="geometry" />
        </mxCell>
        <mxCell id="zYr-CUKTBNsLy4SpV7Tg-49" value="8" style="strokeWidth=1;shadow=0;dashed=0;align=center;html=1;shape=mxgraph.mockup.forms.rrect;rSize=0;strokeColor=#999999;fillColor=#eeeeee;" parent="zYr-CUKTBNsLy4SpV7Tg-1" vertex="1">
          <mxGeometry x="129.9375" y="202.97142857142856" width="37.125" height="27.42857142857143" as="geometry" />
        </mxCell>
        <mxCell id="zYr-CUKTBNsLy4SpV7Tg-50" value="9" style="strokeWidth=1;shadow=0;dashed=0;align=center;html=1;shape=mxgraph.mockup.forms.rrect;rSize=0;strokeColor=#999999;fillColor=#eeeeee;" parent="zYr-CUKTBNsLy4SpV7Tg-1" vertex="1">
          <mxGeometry x="167.0625" y="202.97142857142856" width="37.125" height="27.42857142857143" as="geometry" />
        </mxCell>
        <mxCell id="zYr-CUKTBNsLy4SpV7Tg-51" value="10" style="strokeWidth=1;shadow=0;dashed=0;align=center;html=1;shape=mxgraph.mockup.forms.rrect;rSize=0;strokeColor=#999999;fillColor=#eeeeee;" parent="zYr-CUKTBNsLy4SpV7Tg-1" vertex="1">
          <mxGeometry x="204.1875" y="202.97142857142856" width="37.125" height="27.42857142857143" as="geometry" />
        </mxCell>
        <mxCell id="zYr-CUKTBNsLy4SpV7Tg-52" value="11" style="strokeWidth=1;shadow=0;dashed=0;align=center;html=1;shape=mxgraph.mockup.forms.rrect;rSize=0;strokeColor=#999999;fillColor=#eeeeee;" parent="zYr-CUKTBNsLy4SpV7Tg-1" vertex="1">
          <mxGeometry x="241.3125" y="202.97142857142856" width="37.125" height="27.42857142857143" as="geometry" />
        </mxCell>
        <mxCell id="zYr-CUKTBNsLy4SpV7Tg-53" value="24" style="strokeWidth=1;shadow=0;dashed=0;align=center;html=1;shape=mxgraph.mockup.forms.rrect;rSize=0;strokeColor=#23445d;strokeWidth=2;fillColor=#bac8d3;" parent="zYr-CUKTBNsLy4SpV7Tg-1" vertex="1">
          <mxGeometry x="92.8125" y="148.11428571428573" width="37.125" height="27.42857142857143" as="geometry" />
        </mxCell>
        <mxCell id="zYr-CUKTBNsLy4SpV7Tg-54" value="&lt;div style=&quot;font-size: 18px;&quot;&gt;&lt;font face=&quot;Times New Roman&quot; style=&quot;font-size: 18px;&quot;&gt;&lt;span style=&quot;font-size: 18px;&quot;&gt;Дата начала мероприятия&lt;/span&gt;&lt;/font&gt;&lt;/div&gt;" style="text;html=1;strokeColor=none;fillColor=none;align=left;verticalAlign=middle;whiteSpace=wrap;rounded=0;fontSize=18;" parent="1" vertex="1">
          <mxGeometry x="72" y="216" width="286" height="39" as="geometry" />
        </mxCell>
        <mxCell id="zYr-CUKTBNsLy4SpV7Tg-55" value="&lt;font color=&quot;#0066cc&quot; face=&quot;Times New Roman&quot; style=&quot;font-size: 18px;&quot;&gt;&lt;span style=&quot;font-size: 18px;&quot;&gt;&lt;u style=&quot;&quot;&gt;Список гостей&lt;/u&gt;&lt;/span&gt;&lt;/font&gt;" style="text;html=1;strokeColor=none;fillColor=none;align=left;verticalAlign=middle;whiteSpace=wrap;rounded=0;fontSize=18;" parent="1" vertex="1">
          <mxGeometry x="415" y="214" width="340" height="40" as="geometry" />
        </mxCell>
        <mxCell id="zYr-CUKTBNsLy4SpV7Tg-56" value="" style="html=1;shadow=0;dashed=0;shape=mxgraph.bootstrap.rrect;rSize=5;strokeColor=#999999;html=1;whiteSpace=wrap;fillColor=#FFFFFF;fontColor=#000000;fontFamily=Times New Roman;fontSize=14;" parent="1" vertex="1">
          <mxGeometry x="415" y="254" width="340" height="242" as="geometry" />
        </mxCell>
        <mxCell id="zYr-CUKTBNsLy4SpV7Tg-57" value="&lt;font style=&quot;font-size: 14px;&quot;&gt;Имя Фамилия&lt;/font&gt;" style="strokeColor=#36393d;fillColor=#eeeeee;html=1;shadow=0;dashed=0;shape=mxgraph.bootstrap.topButton;rSize=5;perimeter=none;whiteSpace=wrap;resizeWidth=1;align=left;spacing=10;fontSize=14;fontFamily=Times New Roman;" parent="zYr-CUKTBNsLy4SpV7Tg-56" vertex="1">
          <mxGeometry width="340" height="30" relative="1" as="geometry" />
        </mxCell>
        <mxCell id="zYr-CUKTBNsLy4SpV7Tg-58" value="&lt;font style=&quot;font-size: 14px;&quot;&gt;Имя Фамилия&lt;/font&gt;" style="strokeColor=inherit;fillColor=inherit;gradientColor=inherit;fontColor=inherit;html=1;shadow=0;dashed=0;perimeter=none;whiteSpace=wrap;resizeWidth=1;align=left;spacing=10;fontSize=14;fontFamily=Times New Roman;" parent="zYr-CUKTBNsLy4SpV7Tg-56" vertex="1">
          <mxGeometry width="340" height="30" relative="1" as="geometry">
            <mxPoint y="30" as="offset" />
          </mxGeometry>
        </mxCell>
        <mxCell id="zYr-CUKTBNsLy4SpV7Tg-60" value="" style="strokeColor=inherit;fillColor=inherit;gradientColor=inherit;fontColor=inherit;html=1;shadow=0;dashed=0;perimeter=none;whiteSpace=wrap;resizeWidth=1;align=left;spacing=10;fontFamily=Times New Roman;fontSize=14;" parent="zYr-CUKTBNsLy4SpV7Tg-56" vertex="1">
          <mxGeometry width="340" height="30" relative="1" as="geometry">
            <mxPoint y="90" as="offset" />
          </mxGeometry>
        </mxCell>
        <mxCell id="zYr-CUKTBNsLy4SpV7Tg-61" value="Добавить еще..." style="strokeColor=inherit;fillColor=inherit;gradientColor=inherit;fontColor=inherit;html=1;shadow=0;dashed=0;shape=mxgraph.bootstrap.bottomButton;rSize=5;perimeter=none;whiteSpace=wrap;resizeWidth=1;resizeHeight=0;align=left;spacing=10;fontFamily=Times New Roman;fontSize=14;" parent="zYr-CUKTBNsLy4SpV7Tg-56" vertex="1">
          <mxGeometry y="1" width="340" height="30" relative="1" as="geometry">
            <mxPoint y="-30" as="offset" />
          </mxGeometry>
        </mxCell>
        <mxCell id="zYr-CUKTBNsLy4SpV7Tg-63" value="" style="strokeColor=inherit;fillColor=inherit;gradientColor=inherit;fontColor=inherit;html=1;shadow=0;dashed=0;perimeter=none;whiteSpace=wrap;resizeWidth=1;align=left;spacing=10;fontFamily=Times New Roman;fontSize=14;" parent="zYr-CUKTBNsLy4SpV7Tg-56" vertex="1">
          <mxGeometry y="150" width="340" height="32" as="geometry" />
        </mxCell>
        <mxCell id="zYr-CUKTBNsLy4SpV7Tg-64" value="" style="strokeColor=inherit;fillColor=inherit;gradientColor=inherit;fontColor=inherit;html=1;shadow=0;dashed=0;perimeter=none;whiteSpace=wrap;resizeWidth=1;align=left;spacing=10;fontFamily=Times New Roman;fontSize=14;" parent="zYr-CUKTBNsLy4SpV7Tg-56" vertex="1">
          <mxGeometry y="182" width="340" height="30" as="geometry" />
        </mxCell>
        <mxCell id="xNrpSnCOFf8h_sKNvS0r-1" value="&lt;font style=&quot;font-size: 14px;&quot;&gt;Имя Фамилия&lt;/font&gt;" style="strokeColor=#999999;fillColor=#eeeeee;html=1;shadow=0;dashed=0;perimeter=none;whiteSpace=wrap;resizeWidth=1;align=left;spacing=10;fontSize=14;fontFamily=Times New Roman;" parent="zYr-CUKTBNsLy4SpV7Tg-56" vertex="1">
          <mxGeometry y="60" width="340" height="30" as="geometry" />
        </mxCell>
        <mxCell id="xNrpSnCOFf8h_sKNvS0r-2" value="&lt;font style=&quot;font-size: 14px;&quot;&gt;Имя Фамилия&lt;/font&gt;" style="strokeColor=inherit;fillColor=inherit;gradientColor=inherit;fontColor=inherit;html=1;shadow=0;dashed=0;perimeter=none;whiteSpace=wrap;resizeWidth=1;align=left;spacing=10;fontSize=14;fontFamily=Times New Roman;" parent="zYr-CUKTBNsLy4SpV7Tg-56" vertex="1">
          <mxGeometry y="90" width="340" height="30" as="geometry" />
        </mxCell>
        <mxCell id="xNrpSnCOFf8h_sKNvS0r-3" value="&lt;font style=&quot;font-size: 14px;&quot;&gt;Имя Фамилия&lt;/font&gt;" style="strokeColor=#999999;fillColor=#eeeeee;html=1;shadow=0;dashed=0;perimeter=none;whiteSpace=wrap;resizeWidth=1;align=left;spacing=10;fontSize=14;fontFamily=Times New Roman;" parent="zYr-CUKTBNsLy4SpV7Tg-56" vertex="1">
          <mxGeometry y="120" width="340" height="31" as="geometry" />
        </mxCell>
        <mxCell id="xNrpSnCOFf8h_sKNvS0r-4" value="&lt;font style=&quot;font-size: 14px;&quot;&gt;Имя Фамилия&lt;/font&gt;" style="strokeColor=inherit;fillColor=inherit;gradientColor=inherit;fontColor=inherit;html=1;shadow=0;dashed=0;perimeter=none;whiteSpace=wrap;resizeWidth=1;align=left;spacing=10;fontSize=14;fontFamily=Times New Roman;" parent="zYr-CUKTBNsLy4SpV7Tg-56" vertex="1">
          <mxGeometry y="150" width="340" height="32" as="geometry" />
        </mxCell>
        <mxCell id="xNrpSnCOFf8h_sKNvS0r-5" value="&lt;font style=&quot;font-size: 14px;&quot;&gt;Имя Фамилия&lt;/font&gt;" style="strokeColor=#999999;fillColor=#eeeeee;html=1;shadow=0;dashed=0;perimeter=none;whiteSpace=wrap;resizeWidth=1;align=left;spacing=10;fontSize=14;fontFamily=Times New Roman;" parent="zYr-CUKTBNsLy4SpV7Tg-56" vertex="1">
          <mxGeometry y="182" width="340" height="30" as="geometry" />
        </mxCell>
        <mxCell id="MBN9Hzt8fTbn2xJtQR2Q-1" value="Место проведения" style="fillColor=none;strokeColor=none;align=left;fontSize=18;fontFamily=Times New Roman;" parent="1" vertex="1">
          <mxGeometry x="75" y="516" width="260" height="40" as="geometry" />
        </mxCell>
        <mxCell id="MBN9Hzt8fTbn2xJtQR2Q-2" value="" style="html=1;shadow=0;dashed=0;shape=mxgraph.bootstrap.rrect;rSize=5;fillColor=#eeeeee;strokeColor=#999999;align=left;spacing=15;fontSize=14;fontFamily=Times New Roman;" parent="1" vertex="1">
          <mxGeometry x="75" y="556" width="680" height="30" as="geometry" />
        </mxCell>
        <mxCell id="LktYyPlnv6st-8sthAyF-1" value="&lt;font face=&quot;Times New Roman&quot;&gt;&lt;span style=&quot;font-size: 20px;&quot;&gt;&amp;nbsp; Новое мероприятие&lt;/span&gt;&lt;/font&gt;" style="rounded=0;whiteSpace=wrap;html=1;fillColor=#bac8d3;strokeColor=#23445d;align=left;" parent="1" vertex="1">
          <mxGeometry y="30" width="820" height="50" as="geometry" />
        </mxCell>
        <mxCell id="xcAuIO73cjGqv90E3MYR-71" value="&lt;font style=&quot;font-size: 16px;&quot;&gt;Описание мероприятия&lt;/font&gt;" style="html=1;shadow=0;dashed=0;shape=mxgraph.bootstrap.rrect;rSize=5;fillColor=#eeeeee;strokeColor=#999999;align=left;spacing=15;fontSize=14;fontFamily=Times New Roman;" parent="1" vertex="1">
          <mxGeometry x="70" y="110" width="680" height="90" as="geometry" />
        </mxCell>
        <mxCell id="qcNCMn9KeaLeJUEg9DyW-1" value="&lt;font style=&quot;font-size: 18px;&quot; face=&quot;Times New Roman&quot;&gt;Сформировать бюджет&lt;/font&gt;" style="rounded=1;fillColor=#eeeeee;strokeColor=#999999;html=1;whiteSpace=wrap;align=center;verticalAlign=middle;fontStyle=0;fontSize=18;sketch=0;" parent="1" vertex="1">
          <mxGeometry x="75" y="616" width="295" height="40" as="geometry" />
        </mxCell>
        <mxCell id="KxSi85w54n5diYDnUZVL-1" value="&lt;font style=&quot;font-size: 18px;&quot; face=&quot;Times New Roman&quot;&gt;Добавить отзывы&lt;/font&gt;" style="rounded=1;fillColor=#eeeeee;strokeColor=#999999;html=1;whiteSpace=wrap;align=center;verticalAlign=middle;fontStyle=0;fontSize=18;sketch=0;" parent="1" vertex="1">
          <mxGeometry x="415" y="616" width="335" height="40" as="geometry" />
        </mxCell>
      </root>
    </mxGraphModel>
  </diagram>
  <diagram id="dyoqzepSasdzcmo3e-On" name="Guest list">
    <mxGraphModel dx="1418" dy="828" grid="1" gridSize="10" guides="1" tooltips="1" connect="1" arrows="1" fold="1" page="1" pageScale="1" pageWidth="827" pageHeight="1169" math="0" shadow="0">
      <root>
        <mxCell id="0" />
        <mxCell id="1" parent="0" />
        <mxCell id="yKNaUsNgnOUeVwDCR0X8-1" value="&amp;nbsp; Events" style="strokeWidth=1;shadow=0;dashed=0;align=center;html=1;shape=mxgraph.mockup.containers.window;align=left;verticalAlign=top;spacingLeft=8;strokeColor2=#008cff;strokeColor3=#c4c4c4;fontColor=#666666;mainText=;fontSize=17;labelBackgroundColor=none;whiteSpace=wrap;" parent="1" vertex="1">
          <mxGeometry width="820" height="510" as="geometry" />
        </mxCell>
        <mxCell id="tlNG-WNOLlJWn9mi0tQj-1" value="&lt;font face=&quot;Times New Roman&quot;&gt;&lt;span style=&quot;font-size: 20px;&quot;&gt;&amp;nbsp; Список гостей&lt;/span&gt;&lt;/font&gt;" style="rounded=0;whiteSpace=wrap;html=1;fillColor=#bac8d3;strokeColor=#23445d;align=left;" parent="1" vertex="1">
          <mxGeometry y="30" width="820" height="50" as="geometry" />
        </mxCell>
        <mxCell id="-lXclHCUXQb27rjHbSIT-1" value="&lt;font face=&quot;Times New Roman&quot;&gt;Добавить гостя&lt;/font&gt;" style="rounded=1;fillColor=#bac8d3;strokeColor=#23445d;html=1;whiteSpace=wrap;align=center;verticalAlign=middle;fontStyle=0;fontSize=18;sketch=0;" parent="1" vertex="1">
          <mxGeometry x="70" y="430" width="230" height="40" as="geometry" />
        </mxCell>
        <mxCell id="q3jg4jIVgtjl4Fvln7zT-2" value="&lt;font face=&quot;Times New Roman&quot; style=&quot;font-size: 18px;&quot;&gt;Посещение&lt;/font&gt;" style="rounded=1;fillColor=#F0F2F5;strokeColor=#D8DCE3;align=left;verticalAlign=middle;fontStyle=0;fontSize=12;labelPosition=right;verticalLabelPosition=middle;spacingLeft=10;html=1;shadow=0;dashed=0" parent="1" vertex="1">
          <mxGeometry x="70" y="220" width="20" height="20" as="geometry" />
        </mxCell>
        <mxCell id="xTeh-U-uZWP__EPf6-pQ-1" value="&lt;div style=&quot;font-size: 18px;&quot;&gt;&lt;font face=&quot;Times New Roman&quot; style=&quot;font-size: 18px;&quot;&gt;&lt;span style=&quot;font-size: 18px;&quot;&gt;Имя Фамилия&lt;/span&gt;&lt;/font&gt;&lt;/div&gt;" style="text;html=1;strokeColor=none;fillColor=none;align=left;verticalAlign=middle;whiteSpace=wrap;rounded=0;fontSize=18;" parent="1" vertex="1">
          <mxGeometry x="150" y="110" width="680" height="40" as="geometry" />
        </mxCell>
        <mxCell id="xTeh-U-uZWP__EPf6-pQ-2" value="&lt;font style=&quot;font-size: 16px;&quot; face=&quot;Times New Roman&quot;&gt;&amp;nbsp; Комментарий&lt;/font&gt;" style="rounded=1;whiteSpace=wrap;html=1;strokeColor=#999999;align=left;fontSize=18;fillColor=#f5f5f5;fontColor=#333333;" parent="1" vertex="1">
          <mxGeometry x="150" y="150" width="610" height="50" as="geometry" />
        </mxCell>
        <mxCell id="OGQlcA96LZTDdE8AFcLi-1" value="" style="strokeColor=#B3B3B3;verticalLabelPosition=bottom;shadow=0;dashed=0;verticalAlign=top;strokeWidth=2;html=1;shape=mxgraph.mockup.misc.trashcanIcon;" parent="1" vertex="1">
          <mxGeometry x="730" y="210" width="30" height="30" as="geometry" />
        </mxCell>
        <mxCell id="OGQlcA96LZTDdE8AFcLi-3" value="" style="html=1;verticalLabelPosition=bottom;align=center;labelBackgroundColor=#ffffff;verticalAlign=top;strokeWidth=2;strokeColor=#B3B3B3;shadow=0;dashed=0;shape=mxgraph.ios7.icons.edit;" parent="1" vertex="1">
          <mxGeometry x="691" y="210" width="29.4" height="29.4" as="geometry" />
        </mxCell>
        <mxCell id="y9o6Q8KTpabZfTse898i-1" value="&lt;font style=&quot;font-size: 18px;&quot; face=&quot;Times New Roman&quot;&gt;Сохранить изменения&lt;/font&gt;" style="rounded=1;fillColor=#bac8d3;strokeColor=#23445d;html=1;whiteSpace=wrap;align=center;verticalAlign=middle;fontStyle=0;fontSize=18;sketch=0;" parent="1" vertex="1">
          <mxGeometry x="530" y="430" width="230" height="40" as="geometry" />
        </mxCell>
        <mxCell id="QBzp7DymNzANs6T-aqzE-1" value="" style="verticalLabelPosition=bottom;verticalAlign=top;html=1;shadow=0;dashed=0;strokeWidth=1;shape=mxgraph.android.contact_badge_normal;sketch=0;" parent="1" vertex="1">
          <mxGeometry x="70" y="120" width="60" height="60" as="geometry" />
        </mxCell>
        <mxCell id="QBzp7DymNzANs6T-aqzE-2" value="&lt;font face=&quot;Times New Roman&quot; style=&quot;font-size: 18px;&quot;&gt;Посещение&lt;/font&gt;" style="rounded=1;fillColor=#F0F2F5;strokeColor=#D8DCE3;align=left;verticalAlign=middle;fontStyle=0;fontSize=12;labelPosition=right;verticalLabelPosition=middle;spacingLeft=10;html=1;shadow=0;dashed=0" parent="1" vertex="1">
          <mxGeometry x="65" y="380" width="20" height="20" as="geometry" />
        </mxCell>
        <mxCell id="QBzp7DymNzANs6T-aqzE-3" value="&lt;font style=&quot;font-size: 16px;&quot; face=&quot;Times New Roman&quot;&gt;&amp;nbsp; Комментарий&lt;/font&gt;" style="rounded=1;whiteSpace=wrap;html=1;strokeColor=#999999;align=left;fontSize=18;fillColor=#f5f5f5;fontColor=#333333;" parent="1" vertex="1">
          <mxGeometry x="145" y="310" width="610" height="50" as="geometry" />
        </mxCell>
        <mxCell id="QBzp7DymNzANs6T-aqzE-4" value="" style="strokeColor=#B3B3B3;verticalLabelPosition=bottom;shadow=0;dashed=0;verticalAlign=top;strokeWidth=2;html=1;shape=mxgraph.mockup.misc.trashcanIcon;" parent="1" vertex="1">
          <mxGeometry x="725" y="370" width="30" height="30" as="geometry" />
        </mxCell>
        <mxCell id="QBzp7DymNzANs6T-aqzE-5" value="" style="html=1;verticalLabelPosition=bottom;align=center;labelBackgroundColor=#ffffff;verticalAlign=top;strokeWidth=2;strokeColor=#B3B3B3;shadow=0;dashed=0;shape=mxgraph.ios7.icons.edit;" parent="1" vertex="1">
          <mxGeometry x="686" y="370" width="29.4" height="29.4" as="geometry" />
        </mxCell>
        <mxCell id="QBzp7DymNzANs6T-aqzE-6" value="" style="verticalLabelPosition=bottom;verticalAlign=top;html=1;shadow=0;dashed=0;strokeWidth=1;shape=mxgraph.android.contact_badge_normal;sketch=0;" parent="1" vertex="1">
          <mxGeometry x="65" y="280" width="60" height="60" as="geometry" />
        </mxCell>
      </root>
    </mxGraphModel>
  </diagram>
  <diagram id="4z-JoLzEJmO3jOgCRMr_" name="Budget">
    <mxGraphModel dx="1418" dy="828" grid="1" gridSize="10" guides="1" tooltips="1" connect="1" arrows="1" fold="1" page="1" pageScale="1" pageWidth="827" pageHeight="1169" math="0" shadow="0">
      <root>
        <mxCell id="0" />
        <mxCell id="1" parent="0" />
        <mxCell id="NPe1uiVPziLBwATUp06A-1" value="&amp;nbsp; Events" style="strokeWidth=1;shadow=0;dashed=0;align=center;html=1;shape=mxgraph.mockup.containers.window;align=left;verticalAlign=top;spacingLeft=8;strokeColor2=#008cff;strokeColor3=#c4c4c4;fontColor=#666666;mainText=;fontSize=17;labelBackgroundColor=none;whiteSpace=wrap;" parent="1" vertex="1">
          <mxGeometry width="820" height="630" as="geometry" />
        </mxCell>
        <mxCell id="tULRcdEDzQGVB3Shv_y_-1" value="&lt;font face=&quot;Times New Roman&quot; style=&quot;font-size: 18px;&quot;&gt;&lt;span style=&quot;font-size: 18px;&quot;&gt;Сохранить изменения&lt;/span&gt;&lt;/font&gt;" style="rounded=1;fillColor=#bac8d3;strokeColor=#23445d;html=1;whiteSpace=wrap;align=center;verticalAlign=middle;fontStyle=0;fontSize=18;sketch=0;" parent="1" vertex="1">
          <mxGeometry x="74" y="545" width="220" height="40" as="geometry" />
        </mxCell>
        <mxCell id="G_mGZl9EnaF--jRtabPu-1" value="&lt;font face=&quot;Times New Roman&quot; style=&quot;font-size: 20px;&quot;&gt;&amp;nbsp; Бюджет&lt;/font&gt;" style="rounded=0;whiteSpace=wrap;html=1;fillColor=#bac8d3;strokeColor=#23445D;align=left;" parent="1" vertex="1">
          <mxGeometry y="30" width="820" height="50" as="geometry" />
        </mxCell>
        <mxCell id="3ypAYbfmiOFF7leiZOti-1" value="&lt;font style=&quot;font-size: 18px;&quot; face=&quot;Times New Roman&quot;&gt;Затраты&lt;/font&gt;" style="swimlane;fontStyle=0;childLayout=stackLayout;horizontal=1;startSize=30;horizontalStack=0;resizeParent=1;resizeParentMax=0;resizeLast=0;collapsible=1;marginBottom=0;whiteSpace=wrap;html=1;movable=0;resizable=0;rotatable=0;deletable=0;editable=0;locked=1;connectable=0;strokeColor=#999999;rounded=1;arcSize=14;fillColor=#eeeeee;fontSize=18;" parent="1" vertex="1">
          <mxGeometry x="70" y="120" width="680" height="130" as="geometry" />
        </mxCell>
        <mxCell id="3ypAYbfmiOFF7leiZOti-2" value="&lt;span style=&quot;font-size: 18px;&quot;&gt;&amp;nbsp; Название&lt;/span&gt;" style="text;strokeColor=none;fillColor=none;align=left;verticalAlign=middle;spacingLeft=4;spacingRight=4;overflow=hidden;points=[[0,0.5],[1,0.5]];portConstraint=eastwest;rotatable=1;whiteSpace=wrap;html=1;fontFamily=Times New Roman;movable=1;resizable=1;deletable=1;editable=1;locked=0;connectable=1;fontSize=18;" parent="3ypAYbfmiOFF7leiZOti-1" vertex="1">
          <mxGeometry y="30" width="680" height="50" as="geometry" />
        </mxCell>
        <mxCell id="3ypAYbfmiOFF7leiZOti-3" value="&lt;font style=&quot;font-size: 18px;&quot;&gt;&amp;nbsp; Название&lt;/font&gt;" style="text;strokeColor=none;fillColor=none;align=left;verticalAlign=middle;spacingLeft=4;spacingRight=4;overflow=hidden;points=[[0,0.5],[1,0.5]];portConstraint=eastwest;rotatable=1;whiteSpace=wrap;html=1;fontFamily=Times New Roman;movable=1;resizable=1;deletable=1;editable=1;locked=0;connectable=1;fontSize=18;" parent="3ypAYbfmiOFF7leiZOti-1" vertex="1">
          <mxGeometry y="80" width="680" height="50" as="geometry" />
        </mxCell>
        <mxCell id="3ypAYbfmiOFF7leiZOti-10" value="&lt;font style=&quot;font-size: 16px;&quot; face=&quot;Times New Roman&quot;&gt;шт.&lt;/font&gt;" style="text;html=1;strokeColor=none;fillColor=none;align=center;verticalAlign=middle;whiteSpace=wrap;rounded=0;fontSize=16;fontColor=#999999;" parent="1" vertex="1">
          <mxGeometry x="424" y="160" width="60" height="30" as="geometry" />
        </mxCell>
        <mxCell id="3ypAYbfmiOFF7leiZOti-11" value="&lt;font style=&quot;font-size: 16px;&quot; face=&quot;Times New Roman&quot;&gt;шт.&lt;/font&gt;" style="text;html=1;strokeColor=none;fillColor=none;align=center;verticalAlign=middle;whiteSpace=wrap;rounded=0;fontSize=16;fontColor=#999999;" parent="1" vertex="1">
          <mxGeometry x="424" y="210" width="60" height="30" as="geometry" />
        </mxCell>
        <mxCell id="PLwUTglbjC91IN_zd3SH-1" value="&lt;div style=&quot;font-size: 18px;&quot;&gt;&lt;font face=&quot;Times New Roman&quot; style=&quot;font-size: 18px;&quot;&gt;&lt;span style=&quot;font-size: 18px;&quot;&gt;Всего затрачено:&amp;nbsp; &amp;nbsp;0.00 руб.&lt;/span&gt;&lt;/font&gt;&lt;/div&gt;" style="text;html=1;strokeColor=none;fillColor=none;align=left;verticalAlign=middle;whiteSpace=wrap;rounded=0;fontSize=18;" parent="1" vertex="1">
          <mxGeometry x="74" y="260" width="680" height="40" as="geometry" />
        </mxCell>
        <mxCell id="OVu-ML6RQ2K_CWFdMJbW-1" value="&lt;font style=&quot;font-size: 18px;&quot; face=&quot;Times New Roman&quot;&gt;Доходы&lt;/font&gt;" style="swimlane;fontStyle=0;childLayout=stackLayout;horizontal=1;startSize=30;horizontalStack=0;resizeParent=1;resizeParentMax=0;resizeLast=0;collapsible=1;marginBottom=0;whiteSpace=wrap;html=1;movable=0;resizable=0;rotatable=0;deletable=0;editable=0;locked=1;connectable=0;strokeColor=#999999;rounded=1;arcSize=14;fillColor=#eeeeee;fontSize=18;" parent="1" vertex="1">
          <mxGeometry x="68" y="330" width="680" height="130" as="geometry" />
        </mxCell>
        <mxCell id="OVu-ML6RQ2K_CWFdMJbW-2" value="&lt;span style=&quot;font-size: 18px;&quot;&gt;&amp;nbsp; Название&lt;/span&gt;" style="text;strokeColor=none;fillColor=none;align=left;verticalAlign=middle;spacingLeft=4;spacingRight=4;overflow=hidden;points=[[0,0.5],[1,0.5]];portConstraint=eastwest;rotatable=1;whiteSpace=wrap;html=1;fontFamily=Times New Roman;movable=1;resizable=1;deletable=1;editable=1;locked=0;connectable=1;fontSize=18;" parent="OVu-ML6RQ2K_CWFdMJbW-1" vertex="1">
          <mxGeometry y="30" width="680" height="50" as="geometry" />
        </mxCell>
        <mxCell id="OVu-ML6RQ2K_CWFdMJbW-3" value="&lt;font style=&quot;font-size: 18px;&quot;&gt;&amp;nbsp; Название&lt;/font&gt;" style="text;strokeColor=none;fillColor=none;align=left;verticalAlign=middle;spacingLeft=4;spacingRight=4;overflow=hidden;points=[[0,0.5],[1,0.5]];portConstraint=eastwest;rotatable=1;whiteSpace=wrap;html=1;fontFamily=Times New Roman;movable=1;resizable=1;deletable=1;editable=1;locked=0;connectable=1;fontSize=18;" parent="OVu-ML6RQ2K_CWFdMJbW-1" vertex="1">
          <mxGeometry y="80" width="680" height="50" as="geometry" />
        </mxCell>
        <mxCell id="OVu-ML6RQ2K_CWFdMJbW-4" value="&lt;font style=&quot;font-size: 16px;&quot; face=&quot;Times New Roman&quot;&gt;шт.&lt;/font&gt;" style="text;html=1;strokeColor=none;fillColor=none;align=center;verticalAlign=middle;whiteSpace=wrap;rounded=0;fontSize=16;fontColor=#999999;movable=1;resizable=1;rotatable=1;deletable=1;editable=1;locked=0;connectable=1;" parent="1" vertex="1">
          <mxGeometry x="422" y="370" width="60" height="30" as="geometry" />
        </mxCell>
        <mxCell id="OVu-ML6RQ2K_CWFdMJbW-5" value="&lt;font style=&quot;font-size: 16px;&quot; face=&quot;Times New Roman&quot;&gt;шт.&lt;/font&gt;" style="text;html=1;strokeColor=none;fillColor=none;align=center;verticalAlign=middle;whiteSpace=wrap;rounded=0;fontSize=16;fontColor=#999999;movable=1;resizable=1;rotatable=1;deletable=1;editable=1;locked=0;connectable=1;" parent="1" vertex="1">
          <mxGeometry x="422" y="420" width="60" height="30" as="geometry" />
        </mxCell>
        <mxCell id="OVu-ML6RQ2K_CWFdMJbW-6" value="&lt;font style=&quot;font-size: 18px;&quot; face=&quot;Times New Roman&quot;&gt;0.00 руб.&lt;/font&gt;" style="text;html=1;strokeColor=none;fillColor=none;align=center;verticalAlign=middle;whiteSpace=wrap;rounded=0;fontSize=18;fontColor=#000000;movable=1;resizable=1;rotatable=1;deletable=1;editable=1;locked=0;connectable=1;" parent="1" vertex="1">
          <mxGeometry x="610" y="370" width="87" height="30" as="geometry" />
        </mxCell>
        <mxCell id="OVu-ML6RQ2K_CWFdMJbW-8" value="&lt;div style=&quot;font-size: 18px;&quot;&gt;&lt;font face=&quot;Times New Roman&quot; style=&quot;font-size: 18px;&quot;&gt;&lt;span style=&quot;font-size: 18px;&quot;&gt;Всего получено:&amp;nbsp; &amp;nbsp;0.00 руб.&lt;/span&gt;&lt;/font&gt;&lt;/div&gt;" style="text;html=1;strokeColor=none;fillColor=none;align=left;verticalAlign=middle;whiteSpace=wrap;rounded=0;fontSize=18;movable=1;resizable=1;rotatable=1;deletable=1;editable=1;locked=0;connectable=1;" parent="1" vertex="1">
          <mxGeometry x="72" y="470" width="680" height="40" as="geometry" />
        </mxCell>
        <mxCell id="qLmRJ-sC1Tq58XXSv1YE-1" value="&lt;font style=&quot;font-size: 18px;&quot; face=&quot;Times New Roman&quot;&gt;0.00 руб.&lt;/font&gt;" style="text;html=1;strokeColor=none;fillColor=none;align=center;verticalAlign=middle;whiteSpace=wrap;rounded=0;fontSize=18;fontColor=#000000;movable=1;resizable=1;rotatable=1;deletable=1;editable=1;locked=0;connectable=1;" parent="1" vertex="1">
          <mxGeometry x="612" y="420" width="87" height="30" as="geometry" />
        </mxCell>
        <mxCell id="qLmRJ-sC1Tq58XXSv1YE-2" value="&lt;font style=&quot;font-size: 18px;&quot; face=&quot;Times New Roman&quot;&gt;0.00 руб.&lt;/font&gt;" style="text;html=1;strokeColor=none;fillColor=none;align=center;verticalAlign=middle;whiteSpace=wrap;rounded=0;fontSize=18;fontColor=#000000;movable=1;resizable=1;rotatable=1;deletable=1;editable=1;locked=0;connectable=1;" parent="1" vertex="1">
          <mxGeometry x="612" y="160" width="87" height="30" as="geometry" />
        </mxCell>
        <mxCell id="qLmRJ-sC1Tq58XXSv1YE-3" value="&lt;font style=&quot;font-size: 18px;&quot; face=&quot;Times New Roman&quot;&gt;0.00 руб.&lt;/font&gt;" style="text;html=1;strokeColor=none;fillColor=none;align=center;verticalAlign=middle;whiteSpace=wrap;rounded=0;fontSize=18;fontColor=#000000;movable=1;resizable=1;rotatable=1;deletable=1;editable=1;locked=0;connectable=1;" parent="1" vertex="1">
          <mxGeometry x="612" y="200" width="87" height="30" as="geometry" />
        </mxCell>
      </root>
    </mxGraphModel>
  </diagram>
  <diagram id="dZxu_-G6KhsuAHX67nq7" name="Reviews">
    <mxGraphModel dx="1418" dy="828" grid="1" gridSize="10" guides="1" tooltips="1" connect="1" arrows="1" fold="1" page="1" pageScale="1" pageWidth="827" pageHeight="1169" math="0" shadow="0">
      <root>
        <mxCell id="0" />
        <mxCell id="1" parent="0" />
        <mxCell id="_LRElDpHwVmr-QX5L9wo-1" value="&amp;nbsp; Events" style="strokeWidth=1;shadow=0;dashed=0;align=center;html=1;shape=mxgraph.mockup.containers.window;align=left;verticalAlign=top;spacingLeft=8;strokeColor2=#008cff;strokeColor3=#c4c4c4;fontColor=#666666;mainText=;fontSize=17;labelBackgroundColor=none;whiteSpace=wrap;" parent="1" vertex="1">
          <mxGeometry width="820" height="600" as="geometry" />
        </mxCell>
        <mxCell id="pLgJXLaxYKdXNKCp4PhU-2" value="&lt;div style=&quot;font-size: 18px;&quot;&gt;&lt;font face=&quot;Times New Roman&quot; style=&quot;font-size: 18px;&quot;&gt;&lt;span style=&quot;font-size: 18px;&quot;&gt;Имя Фамилия&lt;/span&gt;&lt;/font&gt;&lt;/div&gt;" style="text;html=1;strokeColor=none;fillColor=none;align=left;verticalAlign=middle;whiteSpace=wrap;rounded=0;fontSize=18;" parent="1" vertex="1">
          <mxGeometry x="130" y="147" width="680" height="40" as="geometry" />
        </mxCell>
        <mxCell id="pLgJXLaxYKdXNKCp4PhU-17" value="&lt;font style=&quot;font-size: 16px;&quot; face=&quot;Times New Roman&quot;&gt;&amp;nbsp; &amp;nbsp;Текст отзыва&lt;/font&gt;" style="rounded=1;whiteSpace=wrap;html=1;strokeColor=#999999;align=left;fontSize=18;fillColor=#f5f5f5;fontColor=#333333;" parent="1" vertex="1">
          <mxGeometry x="130" y="187" width="630" height="50" as="geometry" />
        </mxCell>
        <mxCell id="pLgJXLaxYKdXNKCp4PhU-24" value="" style="verticalLabelPosition=bottom;verticalAlign=top;html=1;shape=mxgraph.basic.star;fillColor=#eeeeee;strokeColor=#999999;fontSize=18;" parent="1" vertex="1">
          <mxGeometry x="260" y="158.5" width="20" height="19.5" as="geometry" />
        </mxCell>
        <mxCell id="pLgJXLaxYKdXNKCp4PhU-25" value="" style="verticalLabelPosition=bottom;verticalAlign=top;html=1;shape=mxgraph.basic.star;fillColor=#eeeeee;strokeColor=#999999;fontSize=18;" parent="1" vertex="1">
          <mxGeometry x="283" y="158.5" width="20" height="19.5" as="geometry" />
        </mxCell>
        <mxCell id="pLgJXLaxYKdXNKCp4PhU-26" value="" style="verticalLabelPosition=bottom;verticalAlign=top;html=1;shape=mxgraph.basic.star;fillColor=#eeeeee;strokeColor=#999999;fontSize=18;" parent="1" vertex="1">
          <mxGeometry x="306" y="158.5" width="20" height="19.5" as="geometry" />
        </mxCell>
        <mxCell id="pLgJXLaxYKdXNKCp4PhU-27" value="" style="verticalLabelPosition=bottom;verticalAlign=top;html=1;shape=mxgraph.basic.star;fillColor=#eeeeee;strokeColor=#999999;fontSize=18;" parent="1" vertex="1">
          <mxGeometry x="329" y="158.5" width="20" height="19.5" as="geometry" />
        </mxCell>
        <mxCell id="pLgJXLaxYKdXNKCp4PhU-28" value="" style="verticalLabelPosition=bottom;verticalAlign=top;html=1;shape=mxgraph.basic.star;fillColor=#eeeeee;strokeColor=#999999;fontSize=18;" parent="1" vertex="1">
          <mxGeometry x="353" y="158.5" width="20" height="19.5" as="geometry" />
        </mxCell>
        <mxCell id="pLgJXLaxYKdXNKCp4PhU-29" value="&lt;div style=&quot;font-size: 18px;&quot;&gt;&lt;font face=&quot;Times New Roman&quot; style=&quot;font-size: 18px;&quot;&gt;&lt;span style=&quot;font-size: 18px;&quot;&gt;Имя Фамилия&lt;/span&gt;&lt;/font&gt;&lt;/div&gt;" style="text;html=1;strokeColor=none;fillColor=none;align=left;verticalAlign=middle;whiteSpace=wrap;rounded=0;fontSize=18;" parent="1" vertex="1">
          <mxGeometry x="130" y="256" width="680" height="40" as="geometry" />
        </mxCell>
        <mxCell id="pLgJXLaxYKdXNKCp4PhU-30" value="&lt;font style=&quot;font-size: 16px;&quot; face=&quot;Times New Roman&quot;&gt;&amp;nbsp; &amp;nbsp;Текст отзыва&lt;/font&gt;" style="rounded=1;whiteSpace=wrap;html=1;strokeColor=#999999;align=left;fontSize=18;fillColor=#f5f5f5;fontColor=#333333;" parent="1" vertex="1">
          <mxGeometry x="130" y="296" width="630" height="50" as="geometry" />
        </mxCell>
        <mxCell id="pLgJXLaxYKdXNKCp4PhU-31" value="" style="verticalLabelPosition=bottom;verticalAlign=top;html=1;shape=mxgraph.basic.star;fillColor=#eeeeee;strokeColor=#999999;fontSize=18;" parent="1" vertex="1">
          <mxGeometry x="260" y="267.5" width="20" height="19.5" as="geometry" />
        </mxCell>
        <mxCell id="pLgJXLaxYKdXNKCp4PhU-32" value="" style="verticalLabelPosition=bottom;verticalAlign=top;html=1;shape=mxgraph.basic.star;fillColor=#eeeeee;strokeColor=#999999;fontSize=18;" parent="1" vertex="1">
          <mxGeometry x="283" y="267.5" width="20" height="19.5" as="geometry" />
        </mxCell>
        <mxCell id="pLgJXLaxYKdXNKCp4PhU-33" value="" style="verticalLabelPosition=bottom;verticalAlign=top;html=1;shape=mxgraph.basic.star;fillColor=#eeeeee;strokeColor=#999999;fontSize=18;" parent="1" vertex="1">
          <mxGeometry x="306" y="267.5" width="20" height="19.5" as="geometry" />
        </mxCell>
        <mxCell id="pLgJXLaxYKdXNKCp4PhU-34" value="" style="verticalLabelPosition=bottom;verticalAlign=top;html=1;shape=mxgraph.basic.star;fillColor=#eeeeee;strokeColor=#999999;fontSize=18;" parent="1" vertex="1">
          <mxGeometry x="329" y="267.5" width="20" height="19.5" as="geometry" />
        </mxCell>
        <mxCell id="pLgJXLaxYKdXNKCp4PhU-35" value="" style="verticalLabelPosition=bottom;verticalAlign=top;html=1;shape=mxgraph.basic.star;fillColor=#eeeeee;strokeColor=#999999;fontSize=18;" parent="1" vertex="1">
          <mxGeometry x="353" y="267.5" width="20" height="19.5" as="geometry" />
        </mxCell>
        <mxCell id="pVH1tufJwFDGw2eFh8n3-1" value="&lt;font face=&quot;Times New Roman&quot;&gt;&lt;span style=&quot;font-size: 20px;&quot;&gt;&amp;nbsp; Отзывы&lt;/span&gt;&lt;/font&gt;" style="rounded=0;whiteSpace=wrap;html=1;fillColor=#bac8d3;strokeColor=#23445d;align=left;" parent="1" vertex="1">
          <mxGeometry y="30" width="820" height="50" as="geometry" />
        </mxCell>
        <mxCell id="rJraXm9SvvVlKw0Mu5qY-2" value="&lt;font face=&quot;Times New Roman&quot;&gt;&lt;span style=&quot;font-size: 20px;&quot;&gt;&amp;nbsp; Предложения&lt;/span&gt;&lt;/font&gt;" style="rounded=0;whiteSpace=wrap;html=1;fillColor=#bac8d3;strokeColor=#23445d;align=left;" parent="1" vertex="1">
          <mxGeometry y="390" width="820" height="50" as="geometry" />
        </mxCell>
        <mxCell id="rJraXm9SvvVlKw0Mu5qY-8" value="&lt;div style=&quot;font-size: 18px;&quot;&gt;&lt;font face=&quot;Times New Roman&quot; style=&quot;font-size: 18px;&quot;&gt;&lt;span style=&quot;font-size: 18px;&quot;&gt;Имя Фамилия&lt;/span&gt;&lt;/font&gt;&lt;/div&gt;" style="text;html=1;strokeColor=none;fillColor=none;align=left;verticalAlign=middle;whiteSpace=wrap;rounded=0;fontSize=18;" parent="1" vertex="1">
          <mxGeometry x="125" y="470" width="680" height="40" as="geometry" />
        </mxCell>
        <mxCell id="rJraXm9SvvVlKw0Mu5qY-9" value="&lt;font style=&quot;font-size: 16px;&quot; face=&quot;Times New Roman&quot;&gt;&amp;nbsp; &amp;nbsp;Текст предложения&lt;/font&gt;" style="rounded=1;whiteSpace=wrap;html=1;strokeColor=#999999;align=left;fontSize=18;fillColor=#f5f5f5;fontColor=#333333;" parent="1" vertex="1">
          <mxGeometry x="125" y="510" width="625" height="50" as="geometry" />
        </mxCell>
        <mxCell id="Z9qxGPh60eRoqBUnFN-9-1" value="&lt;div style=&quot;font-size: 18px;&quot;&gt;&lt;font face=&quot;Times New Roman&quot; style=&quot;font-size: 18px;&quot;&gt;&lt;span style=&quot;font-size: 18px;&quot;&gt;Общая оценка:&amp;nbsp;&lt;/span&gt;&lt;/font&gt;&lt;/div&gt;" style="text;html=1;strokeColor=none;fillColor=none;align=left;verticalAlign=middle;whiteSpace=wrap;rounded=0;fontSize=18;" parent="1" vertex="1">
          <mxGeometry x="90" y="100" width="680" height="40" as="geometry" />
        </mxCell>
        <mxCell id="Z9qxGPh60eRoqBUnFN-9-7" value="" style="verticalLabelPosition=bottom;verticalAlign=top;html=1;shape=mxgraph.basic.star;fillColor=#eeeeee;strokeColor=#999999;fontSize=18;" parent="1" vertex="1">
          <mxGeometry x="212" y="110" width="20" height="19.5" as="geometry" />
        </mxCell>
        <mxCell id="Z9qxGPh60eRoqBUnFN-9-8" value="" style="verticalLabelPosition=bottom;verticalAlign=top;html=1;shape=mxgraph.basic.star;fillColor=#eeeeee;strokeColor=#999999;fontSize=18;" parent="1" vertex="1">
          <mxGeometry x="235" y="110" width="20" height="19.5" as="geometry" />
        </mxCell>
        <mxCell id="Z9qxGPh60eRoqBUnFN-9-9" value="" style="verticalLabelPosition=bottom;verticalAlign=top;html=1;shape=mxgraph.basic.star;fillColor=#eeeeee;strokeColor=#999999;fontSize=18;" parent="1" vertex="1">
          <mxGeometry x="258" y="110" width="20" height="19.5" as="geometry" />
        </mxCell>
        <mxCell id="Z9qxGPh60eRoqBUnFN-9-10" value="" style="verticalLabelPosition=bottom;verticalAlign=top;html=1;shape=mxgraph.basic.star;fillColor=#eeeeee;strokeColor=#999999;fontSize=18;" parent="1" vertex="1">
          <mxGeometry x="281" y="110" width="20" height="19.5" as="geometry" />
        </mxCell>
        <mxCell id="Z9qxGPh60eRoqBUnFN-9-11" value="" style="verticalLabelPosition=bottom;verticalAlign=top;html=1;shape=mxgraph.basic.star;fillColor=#eeeeee;strokeColor=#999999;fontSize=18;" parent="1" vertex="1">
          <mxGeometry x="305" y="110" width="20" height="19.5" as="geometry" />
        </mxCell>
        <mxCell id="ZSAQM3ww7ED4eidpOjVM-5" value="" style="verticalLabelPosition=bottom;verticalAlign=top;html=1;shadow=0;dashed=0;strokeWidth=1;shape=mxgraph.android.contact_badge_normal;sketch=0;" parent="1" vertex="1">
          <mxGeometry x="50" y="158.5" width="60" height="60" as="geometry" />
        </mxCell>
        <mxCell id="ZSAQM3ww7ED4eidpOjVM-7" value="" style="verticalLabelPosition=bottom;verticalAlign=top;html=1;shadow=0;dashed=0;strokeWidth=1;shape=mxgraph.android.contact_badge_normal;sketch=0;" parent="1" vertex="1">
          <mxGeometry x="50" y="256" width="60" height="60" as="geometry" />
        </mxCell>
        <mxCell id="ZSAQM3ww7ED4eidpOjVM-8" value="" style="verticalLabelPosition=bottom;verticalAlign=top;html=1;shadow=0;dashed=0;strokeWidth=1;shape=mxgraph.android.contact_badge_normal;sketch=0;" parent="1" vertex="1">
          <mxGeometry x="50" y="480" width="60" height="60" as="geometry" />
        </mxCell>
      </root>
    </mxGraphModel>
  </diagram>
</mxfile>
